<svg width="26" height="26" xmlns="http://www.w3.org/2000/svg" version="1.1">
 <!-- Generator: Sketch 63.1 (92452) - https://sketch.com -->

 <title>logo/horizon</title>
 <desc>Created with Sketch.</desc>
 <g>
  <title>Layer 1</title>
  <path opacity="0.8" fill="#FFFFFF" id="Path" d="m22.36416,18.08469c0,4.21229 -3.46596,7.62703 -7.74144,7.62703l-14.62272,0l0,-5.08469l14.62272,0c1.42516,0 2.58048,-1.13824 2.58048,-2.54234c0,-1.4041 -1.15532,-2.54235 -2.58048,-2.54235l-5.16096,0l0,-5.08468l5.16096,0c1.42516,0 2.58048,-1.13825 2.58048,-2.54235c0,-1.4041 -1.15532,-2.54234 -2.58048,-2.54234l-14.62272,0l0,-5.08469l14.62272,0c4.27548,0 7.74144,3.41474 7.74144,7.62703c0,1.95342 -0.74538,3.73532 -1.97121,5.08469c1.22583,1.34937 1.97121,3.13127 1.97121,5.08469z"/>
  <path opacity="0.12" fill-rule="nonzero" fill="#000000" id="Shape" d="m0,20.62703l12.55941,0c-2.66779,3.08755 -6.91523,5.08469 -11.69925,5.08469c-0.28875,0 -0.57555,-0.00727 -0.86016,-0.02162l0,-5.06307l0,0zm15.19037,-5.08469l-4.86845,0l0,-5.08468l4.86845,0c0.19182,0.82145 0.29251,1.67167 0.29251,2.54234c0,0.87067 -0.10069,1.72089 -0.29251,2.54234zm-2.63096,-10.16937l-12.55941,0l0,-5.06307c0.28461,-0.01435 0.57141,-0.02162 0.86016,-0.02162c4.78402,0 9.03146,1.99714 11.69925,5.08469l0,0z"/>
  <path fill-rule="nonzero" fill="#FFFFFF" id="Path" d="m0,0.28828c7.1258,0 12.9024,5.69123 12.9024,12.71172c0,7.02049 -5.7766,12.71172 -12.9024,12.71172l0,-5.08469c4.27548,0 7.74144,-3.41474 7.74144,-7.62703c0,-4.21229 -3.46596,-7.62703 -7.74144,-7.62703l0,-5.08469z"/>
 </g>
</svg>
