<svg width="33" height="33" viewBox="0 0 33 33" fill="none" xmlns="http://www.w3.org/2000/svg">
<path d="M15.1992 30.2896C7.89149 29.798 2.09459 23.6688 2.09459 16.2C2.09459 8.73115 7.89149 2.60187 15.1992 2.11035V0.199951C6.83334 0.692751 0.199219 7.66683 0.199219 16.2C0.199219 24.7331 6.83334 31.7065 15.1992 32.2V30.2896Z" fill="white"/>
<path d="M17.1992 0.199951V2.11035C24.5057 2.60187 30.3016 8.73179 30.3016 16.2C30.3016 23.6681 24.5057 29.798 17.1992 30.2896V32.2C25.5637 31.7065 32.1992 24.7331 32.1992 16.2C32.1992 7.66683 25.5637 0.693391 17.1992 0.199951Z" fill="white"/>
<path d="M22.2955 7.83263C21.3587 7.01156 19.983 6.56104 18.1698 6.56104H9.69922V8.43562H9.70559C10.2151 8.46687 10.5807 8.52935 10.8023 8.62308C11.0239 8.71681 11.1787 8.89615 11.2666 9.16109C11.3538 9.42666 11.3984 10.4652 11.3984 11.0576V26.561H13.2938V9.12235C13.2938 8.94221 13.3667 8.76944 13.4966 8.64206C13.6264 8.51468 13.8025 8.44312 13.9861 8.44312H14.4956C14.6792 8.44312 14.8553 8.51468 14.9851 8.64206C15.1149 8.76944 15.1879 8.94221 15.1879 9.12235V26.561H17.0833V16.2895H17.7628C19.2204 16.2895 20.3906 16.0288 21.2733 15.5072C22.156 14.9856 22.7808 14.3375 23.1477 13.5626C23.5121 12.8031 23.7005 11.9739 23.6992 11.1344C23.7009 9.75429 23.233 8.6537 22.2955 7.83263Z" fill="white"/>
</svg>
