<svg width="277" height="266" viewBox="0 0 277 266" fill="none" xmlns="http://www.w3.org/2000/svg">
<mask id="mask0_237_1790" style="mask-type:luminance" maskUnits="userSpaceOnUse" x="0" y="0" width="277" height="266">
<path d="M276.326 0.220703H0.326172V265.221H276.326V0.220703Z" fill="white"/>
</mask>
<g mask="url(#mask0_237_1790)">
<path d="M179.206 153.461C179.08 153.771 178.947 154.081 178.813 154.391L176.259 160.061C176.204 160.181 176.141 160.301 176.086 160.411V160.431C175.081 162.241 173.187 163.311 171.199 163.311C171.018 163.311 170.821 163.31 170.641 163.28C169.91 163.21 169.171 162.981 168.472 162.591C166.319 161.391 165.336 158.901 165.831 156.561C165.91 156.171 166.043 155.781 166.208 155.401L168.692 149.911C168.692 149.911 168.723 149.84 168.747 149.8C171.002 144.65 167.945 138.711 162.476 137.221L157.674 135.901C153.274 134.701 150.067 131.081 150.185 126.561C150.185 126.741 150.052 126.391 150.185 126.561C150.185 124.271 160.425 120.901 163.992 123.921L170.923 128.461C179.214 133.881 182.852 144.301 179.214 153.461H179.206Z" fill="#9E0EB0"/>
<path d="M112.151 4.83057L113.054 6.14062L153.831 124.73L154.232 125.911L139.796 130.76C111.75 138.57 80.0963 124.2 66.2343 94.2803C50.4783 60.2703 65.1033 22.1203 97.0863 9.78027C97.4873 9.62027 97.8883 9.47031 98.2883 9.32031L98.8153 9.14062L112.151 4.81055V4.83057Z" fill="url(#paint0_linear_237_1790)" stroke="#332933" stroke-width="1.11956" stroke-linejoin="round"/>
<path d="M191.05 39.5211C205.187 70.0411 194.688 106.331 166.131 121.331C135.814 137.261 97.0642 123.341 81.3082 89.3312C65.5522 55.3312 80.1852 17.1712 112.16 4.8312C142.281 -6.7988 176.913 9.00114 191.058 39.5211H191.05Z" fill="#FFFBF6"/>
<mask id="mask1_237_1790" style="mask-type:luminance" maskUnits="userSpaceOnUse" x="74" y="1" width="124" height="127">
<path d="M191.051 39.5211C205.188 70.0411 194.69 106.331 166.132 121.331C135.815 137.261 97.0663 123.341 81.3103 89.3312C65.5543 55.3312 80.1863 17.1712 112.162 4.8312C142.282 -6.7988 176.914 9.00114 191.059 39.5211H191.051Z" fill="white"/>
</mask>
<g mask="url(#mask1_237_1790)">
<path d="M169.244 122.381C149.544 132.741 126.275 130.481 108.075 118.291C119.839 119.951 132.012 118.111 143.06 112.301C171.618 97.2908 182.124 61.001 167.979 30.481C162.573 18.801 154.164 9.29086 144.161 2.63086C165.095 5.59086 184.458 19.611 194.163 40.561C208.308 71.091 197.802 107.371 169.244 122.371V122.381Z" fill="#FAD68C"/>
</g>
<path d="M191.05 39.5211C205.187 70.0411 194.688 106.331 166.131 121.331C135.814 137.261 97.0642 123.341 81.3082 89.3312C65.5522 55.3312 80.1852 17.1712 112.16 4.8312C142.281 -6.7988 176.913 9.00114 191.058 39.5211H191.05Z" stroke="#332933" stroke-width="1.13529" stroke-miterlimit="10"/>
<mask id="mask2_237_1790" style="mask-type:luminance" maskUnits="userSpaceOnUse" x="114" y="26" width="47" height="71">
<path d="M160.478 26.5107H114.873V96.6853H160.478V26.5107Z" fill="white"/>
</mask>
<g mask="url(#mask2_237_1790)">
<path d="M143.067 78.7803L149.338 95.9604L159.74 58.6406L143.067 78.7705V78.7803Z" fill="#3C65E5" stroke="#332933" stroke-width="1.13529" stroke-linecap="round" stroke-linejoin="round"/>
<path d="M124.241 27.2412L158.279 54.6411L141.607 74.7607L115.609 69.9009" fill="#3C65E5"/>
<path d="M124.241 27.2412L158.279 54.6411L141.607 74.7607L115.609 69.9009" stroke="#332933" stroke-width="1.13529" stroke-linecap="round" stroke-linejoin="round"/>
<path d="M115.609 69.9009L124.241 27.2412L133.506 52.6108L115.609 69.9009ZM117.07 73.9209L143.053 78.7808L149.323 95.9609L117.07 73.9209Z" fill="#7A90DD" stroke="#332933" stroke-width="1.13529" stroke-linecap="round" stroke-linejoin="round"/>
<path d="M133.506 52.6113L141.607 74.7612L158.279 54.6416L133.506 52.6113Z" fill="#657ED7" stroke="#332933" stroke-width="1.13529" stroke-linecap="round" stroke-linejoin="round"/>
<path d="M115.609 69.9014L133.506 52.6113L141.607 74.7612L115.609 69.9014Z" fill="#9BAFF3" stroke="#332933" stroke-width="1.13529" stroke-linecap="round" stroke-linejoin="round"/>
</g>
<path d="M265.631 67.6916C265.686 67.7116 251.832 70.0316 242.905 66.1916C236.839 61.5316 231.691 54.6916 223.857 53.1516C216.21 53.4716 219.487 42.1017 224.116 39.5617C246.402 27.3417 238.952 61.9316 265.624 67.6916H265.631Z" fill="#BC56BA"/>
<path d="M216.908 185.551C214.409 187.891 211.565 189.922 208.39 191.562C207.761 191.892 207.117 192.202 206.465 192.492C183.683 202.732 150.333 197.911 123.324 195.441C122.593 195.381 121.87 195.311 121.147 195.251C114.569 194.661 108.401 194.261 102.9 194.301C101.98 180.331 97.1164 162.972 96.0474 148.872C98.9004 146.962 102.295 145.232 106.381 143.742C106.42 143.722 106.452 143.711 106.483 143.711C128.817 137.251 147.661 147.512 167.424 120.812C167.857 120.322 168.273 119.832 168.674 119.332C183.605 101.062 181.459 81.0313 193.404 64.8013C194.913 62.7513 196.642 60.7616 198.661 58.8516C201.844 64.5516 205.907 73.7317 209.922 82.7017C213.466 90.6217 216.971 98.3714 219.784 103.421C219.635 105.401 219.612 107.531 219.698 109.771C220.075 120.411 222.904 133.582 226.794 144.332C232.138 159.112 227.894 175.292 216.916 185.562L216.908 185.551Z" fill="#FFFBF6"/>
<mask id="mask3_237_1790" style="mask-type:luminance" maskUnits="userSpaceOnUse" x="96" y="58" width="134" height="141">
<path d="M216.91 185.551C214.411 187.891 211.567 189.922 208.392 191.562C207.763 191.892 207.119 192.202 206.467 192.492C183.685 202.732 150.335 197.911 123.326 195.441C122.595 195.381 121.872 195.311 121.149 195.251C114.571 194.661 108.403 194.261 102.902 194.301C101.982 180.331 97.1183 162.972 96.0493 148.872C98.9023 146.962 102.297 145.232 106.383 143.742C106.422 143.722 106.454 143.711 106.485 143.711C128.819 137.251 147.663 147.512 167.426 120.812C167.859 120.322 168.275 119.832 168.676 119.332C183.607 101.062 181.461 81.0313 193.406 64.8013C194.915 62.7513 196.644 60.7616 198.663 58.8516C201.846 64.5516 205.909 73.7317 209.924 82.7017C213.468 90.6217 216.973 98.3714 219.786 103.421C219.637 105.401 219.614 107.531 219.7 109.771C220.077 120.411 222.906 133.582 226.796 144.332C232.14 159.112 227.896 175.292 216.918 185.562L216.91 185.551Z" fill="white"/>
</mask>
<g mask="url(#mask3_237_1790)">
<path d="M122.206 143.281C135.337 146.891 150.386 140.511 140.029 161.001C139.549 166.781 138.426 174.501 142.221 179.321C150.606 185.041 152.406 178.841 148.382 171.831C148.17 170.431 151.125 168.451 151.926 167.341C154.63 163.211 156.964 158.681 158.221 153.911C159.745 147.211 155.683 141.021 157.364 134.481C157.647 130.971 162.637 128.091 161.498 124.661C159.494 122.101 155.683 123.021 153.278 122.521C146.701 121.511 149.482 115.841 148.893 111.501C144.618 104.801 132.807 120.742 129.247 123.492C123.487 129.322 105.366 138.481 122.214 143.281H122.206Z" fill="#FAD68C"/>
</g>
<path d="M254.948 216.201C254.948 220.791 254.571 226.821 253.14 233.901C246.602 232.601 233.314 224.161 228.945 217.761C228.615 215.161 230.941 208.831 233.141 206.491C235.868 209.751 243.836 217.821 254.948 216.201Z" fill="#BC56BA"/>
<mask id="mask4_237_1790" style="mask-type:luminance" maskUnits="userSpaceOnUse" x="228" y="206" width="27" height="28">
<path d="M254.948 216.201C254.948 220.791 254.571 226.821 253.14 233.901C246.602 232.601 233.314 224.161 228.945 217.761C228.615 215.161 230.941 208.831 233.141 206.491C235.868 209.751 243.836 217.821 254.948 216.201Z" fill="white"/>
</mask>
<g mask="url(#mask4_237_1790)">
<path d="M233.498 227.952C234.063 231.342 246.252 235.031 248.939 232.521C251.894 225.811 255.399 207.941 244.727 206.801C240.719 205.881 238.692 207.962 236.727 210.642C233.78 214.642 235.407 223.322 233.505 227.952H233.498Z" fill="#9E0EB0"/>
</g>
<path d="M254.942 216.201C243.83 217.831 235.862 209.751 233.135 206.491C233.253 206.361 233.371 206.241 233.497 206.141C232.954 205.831 232.499 205.511 232.121 205.181C226.676 200.471 237.143 194.171 228.247 185.481C217.356 192.851 201.097 195.791 192.303 184.271C201.419 177.441 207.556 175.301 216.68 168.471C229.088 171.151 239.296 164.31 244.734 168.3C247.508 170.34 248.435 178.341 248.419 178.721C247.909 188.901 254.258 194.511 254.91 213.251C254.942 214.161 254.965 215.141 254.965 216.191L254.942 216.201Z" fill="#FFFBF6"/>
<mask id="mask5_237_1790" style="mask-type:luminance" maskUnits="userSpaceOnUse" x="192" y="167" width="63" height="50">
<path d="M254.942 216.201C243.83 217.831 235.862 209.751 233.135 206.491C233.253 206.361 233.371 206.241 233.497 206.141C232.954 205.831 232.499 205.511 232.121 205.181C226.676 200.471 237.143 194.171 228.247 185.481C217.356 192.851 201.097 195.791 192.303 184.271C201.419 177.441 207.556 175.301 216.68 168.471C229.088 171.151 239.296 164.31 244.734 168.3C247.508 170.34 248.435 178.341 248.419 178.721C247.909 188.901 254.258 194.511 254.91 213.251C254.942 214.161 254.965 215.141 254.965 216.191L254.942 216.201Z" fill="white"/>
</mask>
<g mask="url(#mask5_237_1790)">
<path d="M241.167 188.19C244.664 177.73 239.116 178.88 238.393 174.98C238.126 173.53 238.731 172.051 239.854 171.081C255.052 157.921 257.481 198.581 260.483 208.701C260.569 208.991 260.632 209.29 260.663 209.61C261.001 213.07 262.463 218.391 261.213 221.831C260.6 223.511 258.927 224.591 257.119 224.601C252.601 224.641 246.33 223.23 244.161 219.46C239.509 210.29 239.289 198.801 241.01 188.851C241.049 188.631 241.104 188.411 241.175 188.201L241.167 188.19Z" fill="#FAD68C"/>
<path d="M213.625 190.431C219.951 186.811 225.931 182.371 230.269 176.541C231.746 174.551 233.043 172.361 233.577 169.951C234.112 167.541 233.782 164.85 232.273 162.88C231.204 161.48 229.617 160.531 227.935 159.991C224.202 158.801 220.045 159.541 216.533 161.271C213.02 163.001 210.065 165.66 207.307 168.42C202.325 173.4 197.075 179.02 193.516 185.13C190.121 190.97 197.06 194.37 202.199 194.34C206.309 194.33 210.144 192.43 213.617 190.44L213.625 190.431Z" fill="#FAD68C"/>
</g>
<path d="M213.861 222.03C212.651 227.03 210.45 234.3 206.144 242.78C199.794 239.61 188.549 227.211 185.893 219.391C186.325 216.461 190.985 210.101 193.916 208.721C193.916 208.721 200.062 225.06 213.869 222.03H213.861Z" fill="#BC56BA"/>
<mask id="mask6_237_1790" style="mask-type:luminance" maskUnits="userSpaceOnUse" x="185" y="208" width="29" height="35">
<path d="M213.859 222.03C212.649 227.03 210.448 234.3 206.142 242.78C199.793 239.61 188.547 227.211 185.891 219.391C186.323 216.461 190.983 210.101 193.914 208.721C193.914 208.721 200.06 225.06 213.867 222.03H213.859Z" fill="white"/>
</mask>
<g mask="url(#mask6_237_1790)">
<path d="M187.776 233.48C187.564 237.1 199.218 243.71 202.574 241.75C207.194 235.54 215.013 217.97 204.31 214.34C200.412 212.47 197.835 214.141 195.179 216.431C191.203 219.861 190.825 229.18 187.784 233.48H187.776Z" fill="#9E0EB0"/>
</g>
<path d="M216.622 185.171C216.457 185.651 216.323 186.121 216.197 186.601C215.781 188.141 215.537 189.641 215.411 191.151C214.759 198.991 217.156 206.941 213.392 222.501C199.585 225.531 193.44 209.181 193.44 209.181C190.603 206.331 192.017 201.231 194.029 196.491C195.208 193.701 196.591 191.021 197.432 188.981C198.799 185.701 198.76 184.081 194.139 186.371C194.084 186.401 194.013 186.431 193.958 186.461C181.094 192.961 170.753 195.751 164.159 189.511C162.423 187.871 160.953 185.611 159.759 182.631C165.613 180.331 169.645 177.081 173.739 173.861C179.939 168.991 188.009 167.201 195.766 168.741C202.508 170.081 208.716 169.631 212.755 171.241C213.997 171.731 215.034 172.421 215.828 173.431C216.252 173.961 216.551 174.701 216.755 175.541C217.635 179.201 216.732 184.861 216.622 185.161V185.171Z" fill="#FFFBF6"/>
<mask id="mask7_237_1790" style="mask-type:luminance" maskUnits="userSpaceOnUse" x="159" y="168" width="59" height="55">
<path d="M216.624 185.171C216.459 185.651 216.325 186.121 216.199 186.601C215.783 188.141 215.539 189.641 215.413 191.151C214.761 198.991 217.158 206.941 213.394 222.501C199.587 225.531 193.442 209.181 193.442 209.181C190.605 206.331 192.019 201.231 194.031 196.491C195.21 193.701 196.593 191.021 197.434 188.981C198.801 185.701 198.762 184.081 194.141 186.371C194.086 186.401 194.015 186.431 193.96 186.461C181.096 192.961 170.755 195.751 164.161 189.511C162.425 187.871 160.955 185.611 159.761 182.631C165.615 180.331 169.647 177.081 173.741 173.861C179.941 168.991 188.011 167.201 195.768 168.741C202.51 170.081 208.718 169.631 212.757 171.241C213.999 171.731 215.036 172.421 215.83 173.431C216.254 173.961 216.553 174.701 216.757 175.541C217.637 179.201 216.734 184.861 216.624 185.161V185.171Z" fill="white"/>
</mask>
<g mask="url(#mask7_237_1790)">
<path d="M206.744 191.681C212.795 182.441 207.137 182.161 207.436 178.201C207.546 176.731 208.512 175.46 209.84 174.79C227.906 165.87 219.867 205.811 220.19 216.351C220.197 216.661 220.182 216.96 220.127 217.27C219.569 220.7 219.616 226.23 217.533 229.23C216.504 230.71 214.618 231.331 212.866 230.891C208.489 229.801 202.783 226.86 201.636 222.67C199.483 212.63 202.202 201.47 206.406 192.27C206.5 192.07 206.61 191.871 206.736 191.681H206.744Z" fill="#FAD68C"/>
</g>
<path d="M86.1624 158.931C85.5184 159.951 84.9214 161.001 84.3794 162.061C58.5094 163.801 62.7054 179.291 47.9164 194.671C26.5184 212.651 -12.7576 194.481 4.82938 162.051C-1.89762 175.281 5.9684 193.461 25.2924 190.601C44.6634 187.751 41.6534 161.261 59.6094 155.981C70.0774 152.281 81.2124 156.361 86.1704 158.931H86.1624Z" fill="#BC56BA"/>
<path d="M88.0316 156.292C87.5366 156.932 87.0646 157.582 86.6246 158.242C86.4676 158.472 86.3186 158.702 86.1616 158.932C81.2026 156.362 70.0676 152.282 59.5996 155.982C41.6516 161.262 44.6616 187.752 25.2826 190.602C5.9596 193.462 -1.90741 175.281 4.81959 162.051C4.91359 161.871 5.00861 161.682 5.11061 161.502C0.191606 171.462 10.2186 186.951 19.5856 175.711C21.2196 172.941 23.0746 170.322 25.1096 167.872C40.6846 149.052 66.9236 140.272 88.0236 156.292H88.0316Z" fill="#EF4180"/>
<path d="M14.0713 158.021C14.1733 158.601 14.2913 159.152 14.4173 159.682C14.2593 159.192 14.1493 158.631 14.0713 158.021Z" fill="#F6A93C"/>
<path d="M88.8915 155.232C88.6005 155.582 88.3015 155.932 88.0345 156.292C87.5395 156.932 87.0685 157.582 86.6285 158.242C62.5425 140.552 38.8335 164.512 25.1215 167.872C19.9815 169.132 16.2415 167.492 14.4175 159.702C16.7675 167.542 27.6435 160.582 35.2665 152.522C42.5505 144.822 68.1925 135.512 88.8915 155.232Z" fill="#FFB409"/>
<path d="M64.2554 93.1611C64.0434 94.0811 63.6974 94.881 63.2334 95.561" stroke="#332933" stroke-width="1.11956" stroke-linecap="round" stroke-linejoin="round"/>
<path d="M67.7193 91.1113C67.7193 91.1113 73.0713 96.5315 79.1453 97.2915C82.8703 97.7615 85.4484 101.432 84.3794 104.992C84.1514 105.742 83.7743 106.452 83.1843 107.062C79.8843 110.512 75.7663 110.091 73.8963 109.531C72.0263 108.971 64.0493 105.952 61.0553 102.182C58.0613 98.4216 67.7273 91.1016 67.7273 91.1016L67.7193 91.1113Z" fill="url(#paint1_linear_237_1790)" stroke="#332933" stroke-width="1.11956" stroke-linejoin="round"/>
<path d="M66.9973 97.5611C69.0793 93.5511 67.9642 88.8811 64.5062 87.1211C61.0492 85.3611 56.5583 87.1712 54.4773 91.1812C52.3953 95.1812 53.5102 99.8509 56.9672 101.611C60.4252 103.381 64.9153 101.561 66.9973 97.5611Z" fill="#FFFBF6"/>
<path d="M64.2623 93.1406C64.2623 93.1406 64.2623 93.1506 64.2623 93.1606C64.0023 94.0406 63.6723 94.8605 63.2403 95.5605V95.5805C59.0363 101.861 45.6853 98.6104 41.6533 91.4804C41.8653 90.3304 49.4643 81.1002 53.0793 79.2802C54.1013 78.7502 54.7063 78.6104 55.4453 78.7704C55.3663 77.9104 55.3033 77.0404 55.5003 76.2104C55.7123 75.2904 56.2863 74.3802 57.1743 74.0302C57.4253 73.9302 57.6843 73.8706 57.9443 73.8906C58.6513 73.9306 59.2323 74.4803 59.5553 75.1103C59.8853 75.7303 60.0183 76.4403 60.2543 77.0903C61.1183 79.5803 63.3033 81.4303 64.1993 83.9003C64.4033 84.4603 64.5453 85.0506 64.6553 85.6406C65.0793 87.8806 64.9853 90.7103 64.2773 93.1303L64.2623 93.1406Z" fill="#FFFBF6"/>
<path d="M49.0712 71.1012C47.4052 67.5412 42.2032 69.0413 42.6352 72.9713C43.0832 77.3113 45.7153 82.6909 50.2103 84.0509C53.6523 85.8609 58.4932 82.931 56.6152 79.171C53.7702 76.821 51.0592 74.2312 49.0712 71.1012Z" fill="#FFFBF6"/>
<path d="M43.0615 82.0712C45.7495 75.6712 57.2146 80.0412 53.4426 86.0112C53.0106 86.7012 52.3035 87.1914 51.4935 87.2514C49.5445 87.3814 47.3445 86.0015 45.2305 86.5815C42.2525 87.4715 42.4646 85.8216 42.6926 83.6816C42.7476 83.1316 42.8575 82.5915 43.0695 82.0815L43.0615 82.0712Z" fill="#FFFBF6"/>
<path d="M51.9637 88.1215C51.6577 87.6315 51.1627 87.2814 50.6597 87.0014C48.4587 85.7914 45.6377 85.7716 43.4217 86.9516C42.8407 87.2516 42.2906 87.6516 41.9756 88.2216C41.6856 88.7616 41.6377 89.4012 41.6307 90.0112C41.6147 90.6812 41.6377 91.3816 41.9607 91.9716C42.4087 92.8016 43.3747 93.2515 44.3177 93.3515C44.8757 93.4015 45.4337 93.3517 45.9917 93.2417C46.5497 93.1317 47.1467 93.1013 47.7287 93.1713C47.8697 93.1813 48.0036 93.2116 48.1446 93.2216C49.0646 93.3416 50.0626 93.4412 50.8716 93.0112C51.8936 92.4512 52.3257 91.2115 52.3727 90.0615C52.4037 89.3915 52.3257 88.7013 51.9637 88.1313V88.1215Z" fill="#FFFBF6"/>
<path d="M80.5683 258.341C67.0433 272.181 52.2313 258.792 63.5863 242.412L69.4173 241.781C69.4173 241.781 67.1143 261.601 80.5763 258.341H80.5683Z" fill="#BC56BA"/>
<mask id="mask8_237_1790" style="mask-type:luminance" maskUnits="userSpaceOnUse" x="59" y="241" width="22" height="24">
<path d="M80.5696 258.341C67.0456 272.181 52.2326 258.792 63.5876 242.412L69.4187 241.781C69.4187 241.781 67.1167 261.601 80.5777 258.341H80.5696Z" fill="white"/>
</mask>
<g mask="url(#mask8_237_1790)">
<path d="M60.1304 255.692C58.2204 257.812 61.2384 264.642 64.2474 265.052C70.1184 263.472 81.4814 257.862 76.7114 250.502C75.2414 247.492 73.2694 248.492 71.3044 250.402C67.8864 252.722 64.1064 254.522 60.1304 255.692Z" fill="#9E0EB0"/>
</g>
<path d="M150.594 196.471C146.225 202.561 140.331 207.511 133.549 210.961C113.793 221.011 95.9163 224.611 87.1853 248.891C85.1033 252.891 82.8633 256.011 80.5683 258.341C67.1153 261.601 69.4102 241.781 69.4102 241.781C73.4492 229.161 76.7103 240.151 84.6633 228.201C89.0873 223.931 89.8652 217.161 91.2172 212.631C95.3582 211.271 99.6333 209.871 104.018 208.221C111.955 205.221 119.074 200.381 124.567 194.051C132.661 194.651 141.478 195.601 150.578 196.461L150.594 196.471Z" fill="#FFFBF6"/>
<mask id="mask9_237_1790" style="mask-type:luminance" maskUnits="userSpaceOnUse" x="69" y="194" width="82" height="65">
<path d="M150.592 196.471C146.223 202.561 140.329 207.511 133.547 210.961C113.792 221.011 95.9142 224.611 87.1832 248.891C85.1012 252.891 82.8613 256.011 80.5673 258.341C67.1133 261.601 69.4083 241.781 69.4083 241.781C73.4473 229.161 76.7083 240.151 84.6613 228.201C89.0853 223.931 89.8633 217.161 91.2153 212.631C95.3563 211.271 99.6312 209.871 104.016 208.221C111.953 205.221 119.072 200.381 124.565 194.051C132.659 194.651 141.476 195.601 150.576 196.461L150.592 196.471Z" fill="white"/>
</mask>
<g mask="url(#mask9_237_1790)">
<path d="M100.568 214.901C107.129 212.501 113.715 210.091 120.559 208.641C128.237 207.011 136.134 206.621 143.828 205.111C148.291 204.231 153.25 202.491 154.994 198.331C156.22 195.401 155.434 191.911 153.564 189.331C151.694 186.761 148.881 184.991 145.957 183.701C136.158 179.401 124.253 180.151 115.074 185.631C112.819 186.981 110.728 188.591 108.693 190.241C101.377 196.201 94.6581 202.881 88.6541 210.121C86.7841 212.381 84.2931 216.331 88.2771 218.241C91.4051 219.741 97.5581 215.991 100.568 214.891V214.901Z" fill="#FAD68C"/>
<path d="M73.779 260.811C71.917 260.561 70.062 259.751 68.915 258.291C67.595 256.611 67.375 254.341 67.383 252.211C67.39 249.671 67.87 246.761 70.039 245.401C71.87 244.251 74.235 244.621 76.396 244.401C81.52 243.871 85.575 239.891 88.569 235.751C89.512 234.451 90.541 233.001 92.121 232.661C93.04 233.791 92.16 235.431 91.453 236.701C89.983 239.371 89.354 242.401 88.765 245.381C88.183 248.361 87.61 251.401 86.25 254.121C83.877 258.861 79.076 261.531 73.771 260.811H73.779Z" fill="#FAD68C"/>
</g>
<path d="M41.6054 252.73C25.5904 265.62 11.5554 249.65 25.5824 233.57H31.8844C31.8844 233.57 27.1694 254.93 41.6054 252.73Z" fill="#BC56BA"/>
<mask id="mask10_237_1790" style="mask-type:luminance" maskUnits="userSpaceOnUse" x="19" y="233" width="23" height="25">
<path d="M41.6035 252.73C25.5885 265.62 11.5535 249.65 25.5805 233.57H31.8825C31.8825 233.57 27.1675 254.93 41.6035 252.73Z" fill="white"/>
</mask>
<g mask="url(#mask10_237_1790)">
<path d="M20.6932 248.581C18.5402 250.441 20.6932 257.591 23.6402 258.361C29.6602 257.501 41.6283 253.301 37.7933 245.421C36.7093 242.241 34.6262 243.011 32.4412 244.661C28.7642 246.571 24.7872 247.901 20.7012 248.581H20.6932Z" fill="#9E0EB0"/>
</g>
<path d="M128.891 188.251C128.553 188.781 128.199 189.321 127.838 189.841C126.832 191.311 125.739 192.721 124.584 194.061C124.356 194.321 124.128 194.571 123.893 194.831C123.704 195.041 123.516 195.241 123.319 195.441C121.834 197.021 120.246 198.511 118.557 199.871C118.29 200.091 118.03 200.311 117.755 200.511C117.009 201.101 116.239 201.671 115.453 202.211C115.241 202.371 115.021 202.511 114.801 202.651C114.604 202.801 114.4 202.931 114.188 203.061C113.921 203.241 113.638 203.421 113.363 203.591C113.268 203.651 113.174 203.721 113.08 203.761C112.805 203.931 112.522 204.111 112.239 204.281C112.019 204.411 111.791 204.541 111.563 204.671C111.367 204.771 111.178 204.881 110.974 204.991C110.651 205.171 110.321 205.351 109.991 205.521C109.897 205.581 109.803 205.631 109.701 205.681C109.481 205.791 109.261 205.911 109.04 206.011C108.726 206.181 108.404 206.331 108.082 206.491C106.754 207.121 105.402 207.701 104.027 208.221C99.6422 209.871 95.3592 211.261 91.2262 212.631C74.3462 218.191 59.8162 223.251 50.0012 243.231C47.2352 247.361 44.3902 250.481 41.6082 252.721C27.1732 254.921 31.8872 233.561 31.8872 233.561C37.7032 220.581 39.8722 232.681 49.7972 220.881C57.4662 214.961 57.4192 202.391 62.0322 200.701C66.1182 199.211 69.7722 196.741 72.0442 193.071C81.3792 177.961 79.2102 160.161 96.0432 148.871C98.8952 146.961 102.29 145.231 106.377 143.741C106.408 143.731 106.432 143.711 106.463 143.711H106.479C115.712 145.751 118.95 148.161 123.995 151.801C137.197 161.331 137.032 175.291 128.883 188.241L128.891 188.251Z" fill="#FFFBF6"/>
<mask id="mask11_237_1790" style="mask-type:luminance" maskUnits="userSpaceOnUse" x="31" y="143" width="104" height="110">
<path d="M128.893 188.251C128.555 188.781 128.201 189.321 127.84 189.841C126.834 191.311 125.741 192.721 124.586 194.061C124.358 194.321 124.13 194.571 123.895 194.831C123.706 195.041 123.517 195.241 123.321 195.441C121.836 197.021 120.248 198.511 118.559 199.871C118.292 200.091 118.032 200.311 117.757 200.511C117.011 201.101 116.241 201.671 115.455 202.211C115.243 202.371 115.023 202.511 114.803 202.651C114.606 202.801 114.402 202.931 114.19 203.061C113.922 203.241 113.64 203.421 113.365 203.591C113.27 203.651 113.176 203.721 113.082 203.761C112.807 203.931 112.524 204.111 112.241 204.281C112.021 204.411 111.793 204.541 111.565 204.671C111.369 204.771 111.18 204.881 110.976 204.991C110.653 205.171 110.323 205.351 109.993 205.521C109.899 205.581 109.805 205.631 109.703 205.681C109.483 205.791 109.262 205.911 109.042 206.011C108.728 206.181 108.406 206.331 108.084 206.491C106.756 207.121 105.404 207.701 104.029 208.221C99.6444 209.871 95.3615 211.261 91.2285 212.631C74.3485 218.191 59.8184 223.251 50.0034 243.231C47.2374 247.361 44.3924 250.481 41.6104 252.721C27.1744 254.921 31.8894 233.561 31.8894 233.561C37.7054 220.581 39.8745 232.681 49.7995 220.881C57.4685 214.961 57.4215 202.391 62.0345 200.701C66.1205 199.211 69.7744 196.741 72.0454 193.071C81.3814 177.961 79.2124 160.161 96.0454 148.871C98.8974 146.961 102.292 145.231 106.378 143.741C106.41 143.731 106.433 143.711 106.465 143.711H106.481C115.714 145.751 118.952 148.161 123.997 151.801C137.199 161.331 137.034 175.291 128.885 188.241L128.893 188.251Z" fill="white"/>
</mask>
<g mask="url(#mask11_237_1790)">
<path d="M37.3735 254.412C35.5185 254.102 33.6955 253.241 32.5955 251.731C31.3305 250.011 31.1805 247.742 31.2595 245.622C31.3535 243.082 31.9275 240.192 34.1355 238.892C36.0055 237.792 38.3555 238.251 40.5245 238.091C45.6635 237.721 49.8445 233.882 52.9715 229.832C53.9545 228.562 55.0385 227.151 56.6265 226.861C57.5065 228.031 56.5785 229.631 55.8325 230.881C54.2765 233.501 53.5455 236.502 52.8695 239.472C52.1935 242.432 51.5185 245.442 50.0725 248.122C47.5495 252.782 42.6615 255.302 37.3815 254.412H37.3735Z" fill="#FAD68C"/>
</g>
<path d="M261.482 105.271C261.247 113.571 255.746 123.101 243.031 121.621C239.188 121.171 235.283 117.211 230.874 114.221C225.931 110.861 223.904 110.431 219.692 109.761C219.606 107.521 219.637 105.391 219.778 103.411C216.965 98.3614 213.468 90.6112 209.916 82.6912C206.364 81.8812 202.867 81.7814 199.897 82.8514C198.207 83.4614 197.036 84.5913 196.235 86.0413C195.913 83.6913 195.834 81.5212 195.976 79.7112C192.306 72.0212 194.074 64.4011 198.655 58.8411C200.313 56.8411 202.325 55.0912 204.588 53.7112C208.863 51.0912 214.018 49.7413 219.213 50.2913C222.309 50.6213 225.413 51.6212 228.375 53.4412C259.188 77.0412 239.141 72.9212 249.184 88.1512C255.95 97.5612 261.671 92.9413 261.475 105.271H261.482Z" fill="#FFFBF6"/>
<mask id="mask12_237_1790" style="mask-type:luminance" maskUnits="userSpaceOnUse" x="194" y="50" width="68" height="72">
<path d="M261.484 105.271C261.249 113.571 255.748 123.101 243.033 121.621C239.19 121.171 235.285 117.211 230.876 114.221C225.933 110.861 223.906 110.431 219.694 109.761C219.607 107.521 219.639 105.391 219.78 103.411C216.967 98.3614 213.47 90.6112 209.918 82.6912C206.366 81.8812 202.869 81.7814 199.899 82.8514C198.209 83.4614 197.038 84.5913 196.237 86.0413C195.915 83.6913 195.836 81.5212 195.977 79.7112C192.308 72.0212 194.076 64.4011 198.657 58.8411C200.315 56.8411 202.327 55.0912 204.59 53.7112C208.865 51.0912 214.02 49.7413 219.215 50.2913C222.311 50.6213 225.415 51.6212 228.377 53.4412C259.19 77.0412 239.143 72.9212 249.186 88.1512C255.952 97.5612 261.673 92.9413 261.477 105.271H261.484Z" fill="white"/>
</mask>
<g mask="url(#mask12_237_1790)">
<path d="M216.251 47.4918C215.088 48.8118 216.086 49.9515 217.107 50.9215C217.469 51.2715 218.317 51.7216 218.435 52.2316C218.6 52.9416 217.767 53.4114 217.83 54.1114C217.862 54.4514 218.137 54.7018 218.38 54.9318C221.414 57.7618 222.891 61.8117 224.471 65.6217C225.209 67.4117 226.034 69.2414 227.457 70.5714C228.761 71.7914 230.459 72.4917 231.999 73.3917C235.645 75.5217 238.427 78.8114 241.342 81.8614C241.955 82.5014 242.678 83.1818 243.566 83.2018C243.747 83.2018 244.784 74.5317 244.965 73.6417C245.664 70.2417 246.435 66.6918 245.554 63.2418C245.169 61.7418 244.494 60.3415 243.818 58.9415C242.482 56.1815 241.13 53.4016 239.244 50.9816C237.987 49.3616 236.509 47.9213 235.024 46.5113C233.547 45.1013 231.999 43.6715 230.081 42.9415C227.567 41.9815 225.657 43.1518 223.284 43.6818C220.667 44.2718 218.035 45.4618 216.235 47.4918H216.251Z" fill="#FAD68C"/>
</g>
<path fill-rule="evenodd" clip-rule="evenodd" d="M274.847 17.3407C274.847 17.3907 274.682 17.7307 274.462 18.1307C273.009 21.1107 270.298 27.441 267.681 29.701V29.6908C268.278 27.1908 268.474 24.451 268.82 21.681C268.852 21.511 268.867 21.3806 268.867 21.2606C268.867 21.2606 268.867 21.2608 268.867 21.2508V21.201C268.867 21.151 268.883 21.0909 268.883 21.0409C268.938 19.9009 269.032 19.6609 270.706 18.8109C271.201 18.5409 274.808 17.2707 274.847 17.3407Z" fill="#FFB409"/>
<path fill-rule="evenodd" clip-rule="evenodd" d="M268.887 21.0513C268.887 21.0913 268.887 21.1314 268.871 21.1914C268.871 21.2114 268.871 21.2412 268.871 21.2612C268.871 21.3812 268.856 21.5216 268.824 21.6816C268.471 24.4516 268.282 27.1914 267.685 29.6914V29.6616C267.536 30.2916 267.363 30.9015 267.158 31.5015C267.072 31.7615 266.978 32.0112 266.868 32.2612C266.813 32.4112 266.75 32.5514 266.687 32.6914C266.42 33.3014 266.098 33.8714 265.712 34.4214C265.61 34.5814 265.508 34.7216 265.39 34.8716C265.265 35.0316 265.139 35.1815 265.013 35.3315C264.872 35.5015 264.73 35.6515 264.573 35.8115C264.439 35.9515 264.306 36.0814 264.157 36.2114C264.094 36.2714 264.023 36.3316 263.952 36.3916C263.881 36.4516 263.811 36.5115 263.74 36.5615C263.614 36.6715 263.489 36.7616 263.363 36.8516C263.276 36.9216 263.182 36.9913 263.088 37.0513C263.056 37.0813 263.033 37.0916 263.009 37.1016C262.821 37.2416 262.624 37.3714 262.42 37.4814C262.216 37.6014 261.995 37.7316 261.768 37.8516C262.773 33.8716 261.94 29.7413 262.404 26.0913C262.506 25.5713 262.569 25.1413 262.546 25.1113C263.111 22.9713 264.408 21.6714 267.158 20.9814C267.944 20.7414 268.439 20.5213 268.699 20.5913C268.738 20.5913 268.761 20.6216 268.785 20.6416C268.824 20.6716 268.84 20.7015 268.864 20.7515C268.887 20.8015 268.903 20.8616 268.903 20.9316C268.903 20.9716 268.919 21.0013 268.919 21.0513H268.887Z" fill="#EF4180"/>
<path fill-rule="evenodd" clip-rule="evenodd" d="M262.378 26.0908C261.914 29.7508 262.747 33.8809 261.741 37.8609C260.735 41.8409 257.906 45.6608 254.551 47.8408C254.952 46.1308 255.117 44.3709 255.164 42.6309C255.164 40.6509 255.085 38.6712 254.999 36.6812C254.975 36.0512 254.944 35.4308 254.928 34.8008C254.849 32.6008 255.062 31.1208 255.203 31.0308C255.329 30.6408 255.486 30.2409 255.69 29.8809C255.745 29.7609 255.816 29.6408 255.887 29.5308C256.005 29.3308 256.138 29.1409 256.287 28.9409C256.342 28.8609 256.405 28.7812 256.476 28.7012C256.633 28.5112 256.798 28.3309 256.979 28.1509C257.089 28.0409 257.207 27.9408 257.325 27.8408C257.443 27.7308 257.568 27.6308 257.702 27.5308C257.788 27.4708 257.875 27.3911 257.969 27.3311C258.142 27.2011 258.338 27.071 258.527 26.961C259.384 26.481 262.425 25.0409 262.511 25.1109C262.535 25.1509 262.472 25.5808 262.37 26.0908H262.378Z" fill="#FFB409"/>
<path fill-rule="evenodd" clip-rule="evenodd" d="M254.999 36.6816C255.077 38.6716 255.164 40.6513 255.164 42.6313C255.109 44.3813 254.952 46.1313 254.551 47.8413C254.417 48.4113 254.26 48.9715 254.064 49.5215C253.301 51.7215 252.036 53.7114 250.425 55.4014C249.891 55.9614 249.317 56.4814 248.728 56.9814C248.414 57.2414 248.091 57.5015 247.761 57.7515C247.581 57.8915 246.81 58.3617 246.63 58.4917C247.376 53.9017 245.647 48.4615 246.197 42.5815C246.308 41.3515 247.023 39.5715 247.486 38.5215C247.502 38.4915 247.526 38.4516 247.533 38.4116C247.714 38.0216 247.848 37.7517 247.871 37.7017H247.848C247.911 37.5517 247.989 37.4112 248.068 37.2612C248.139 37.1212 248.225 36.9813 248.311 36.8413C248.382 36.7013 248.469 36.5814 248.555 36.4614C248.579 36.4214 248.602 36.3916 248.634 36.3516C248.704 36.2316 248.791 36.1212 248.869 36.0112C248.916 35.9512 248.964 35.8715 249.026 35.8115C249.081 35.7515 249.129 35.6813 249.192 35.6113C249.419 35.3313 249.679 35.0415 249.954 34.7715C250.08 34.6415 250.205 34.5214 250.331 34.4014C250.441 34.3014 250.559 34.2016 250.677 34.1016C250.85 33.9416 251.03 33.8014 251.219 33.6514C251.384 33.5214 251.541 33.3915 251.706 33.2715C251.95 33.1015 252.209 32.9017 252.484 32.7217C252.657 32.6017 252.838 32.4713 253.026 32.3613C253.679 31.9313 254.402 31.4913 255.211 31.0312C255.062 31.1013 254.849 32.5815 254.936 34.7915C254.96 35.4215 254.991 36.0414 255.007 36.6714L254.999 36.6816Z" fill="#EF4180"/>
<path fill-rule="evenodd" clip-rule="evenodd" d="M247.866 37.7012C247.842 37.7512 247.708 38.0211 247.528 38.4111C247.528 38.4511 247.496 38.491 247.481 38.521C247.017 39.571 246.302 41.3611 246.192 42.5811C245.642 48.4611 247.37 53.9012 246.624 58.4912V58.4512C246.215 61.0212 244.809 63.4612 242.035 65.4312C241.995 65.3412 241.956 65.2609 241.901 65.1709C241.618 64.7409 241.257 64.2509 240.872 63.7109C237.508 59.0709 236.306 53.2311 237.524 47.6611C237.579 47.3911 237.634 47.1708 237.665 47.0508C239.104 43.0508 242.27 40.3412 246.16 38.4512C246.71 38.1912 247.268 37.9512 247.834 37.7212H247.858L247.866 37.7012Z" fill="#FFB409"/>
<path fill-rule="evenodd" clip-rule="evenodd" d="M238.386 71.5806C237.192 72.2606 229.97 69.2704 227.259 64.9604C225.656 62.4204 225.428 59.8803 226.151 57.5103C226.206 57.3503 226.253 57.1803 226.316 57.0103C226.371 56.8503 226.442 56.6805 226.504 56.5205C228.178 52.5905 232.39 49.2107 237.011 47.2007C237.2 47.1107 237.396 47.0307 237.593 46.9507C237.593 46.9507 237.655 46.9204 237.687 46.9004C237.687 46.9004 237.687 46.9605 237.655 47.0405C237.624 47.1705 237.577 47.3804 237.514 47.6504C236.296 53.2304 237.498 59.0707 240.862 63.7007C241.247 64.2407 241.608 64.7304 241.891 65.1704C241.946 65.2404 241.985 65.3304 242.025 65.4204C242.056 65.4804 242.08 65.5504 242.087 65.6104C242.111 65.6704 242.127 65.7503 242.135 65.8203C242.363 67.4503 240.563 70.0503 238.378 71.5703L238.386 71.5806Z" fill="#EF4180"/>
<path d="M219.219 50.3006C218.237 54.0306 215.777 57.1808 211.172 59.0208C211.172 59.1908 210.496 59.4006 210.363 59.3206C208.186 58.3806 205.781 56.281 204.595 53.721C204.273 53.031 204.037 52.3106 203.919 51.5706C203.573 49.3806 203.636 47.3509 203.966 45.4109C204.878 40.1109 207.848 35.5806 210.3 30.8206C211.329 28.8306 214.198 28.8008 215.274 30.7708C218.551 36.7608 220.814 44.2806 219.219 50.3006Z" fill="#FFFBF6"/>
<path d="M210.898 56.431C205.562 55.261 211.715 27.861 214.89 39.851C214.89 39.851 218.19 58.031 210.898 56.431Z" fill="#FFB409"/>
<path d="M80.7412 258.311C80.6862 258.321 80.6232 258.34 80.5762 258.34" stroke="#332933" stroke-width="1.11956" stroke-linecap="round" stroke-linejoin="round"/>
<path d="M228.4 80.3311C228.4 81.3011 228.219 82.2309 227.874 83.0709C226.805 85.7109 224.204 87.5809 221.147 87.5909C217.116 87.6209 213.831 84.411 213.807 80.421C213.807 79.771 213.886 79.1309 214.043 78.5309C214.868 75.4609 217.689 73.1812 221.053 73.1612C225.084 73.1412 228.369 76.3509 228.392 80.3409L228.4 80.3311Z" fill="#FFB409"/>
<path d="M228.4 80.3311C228.4 81.3011 228.219 82.2309 227.874 83.0709C226.805 85.7109 224.204 87.5809 221.147 87.5909C217.116 87.6209 213.831 84.411 213.807 80.421C213.807 79.771 213.886 79.1309 214.043 78.5309C214.868 75.4609 217.689 73.1812 221.053 73.1612C225.084 73.1412 228.369 76.3509 228.392 80.3409L228.4 80.3311Z" stroke="#332933" stroke-width="1.11956" stroke-linecap="round" stroke-linejoin="round"/>
<path d="M221.097 84.8115C223.576 84.8115 225.585 82.8316 225.585 80.3716C225.585 77.9216 223.576 75.9316 221.097 75.9316C218.619 75.9316 216.61 77.9216 216.61 80.3716C216.61 82.8316 218.619 84.8115 221.097 84.8115Z" fill="#332933"/>
<path d="M228.147 81.0106C228.06 81.9706 227.786 82.8808 227.354 83.6908C227.103 82.0308 226.356 80.4909 225.224 79.2509C224.242 78.1809 222.976 77.3407 221.483 76.8607C220.587 76.5607 219.668 76.4308 218.772 76.4408C217.074 76.4408 215.425 76.941 214.042 77.851C215.166 74.871 218.191 72.871 221.547 73.181C225.554 73.541 228.516 77.0606 228.147 81.0306V81.0106Z" fill="#332933"/>
<path d="M224.619 81.731C225.569 81.731 226.34 80.9708 226.34 80.0308C226.34 79.0908 225.569 78.3311 224.619 78.3311C223.668 78.3311 222.898 79.0908 222.898 80.0308C222.898 80.9708 223.668 81.731 224.619 81.731Z" fill="#FFFBF6"/>
<path d="M246.523 102.261C249.006 102.511 249.642 105.341 249.784 107.741C249.8 108.091 249.383 108.231 249.147 107.991C248.024 106.771 245.8 106.451 245.187 104.681C244.912 104.031 244.739 103.311 244.275 102.781C244.087 102.561 244.259 102.211 244.55 102.201C245.257 102.171 246.255 102.261 246.523 102.261Z" fill="#332933"/>
<path d="M251.961 106.381C251.773 105.261 251.576 104.122 251.128 103.062C250.68 102.012 249.957 101.032 248.944 100.492C247.726 99.8318 246.272 99.8717 244.889 99.9117" stroke="#332933" stroke-width="1.11956" stroke-linecap="round" stroke-linejoin="round"/>
<path d="M257.874 112.831C257.222 113.291 251.014 117.211 244.35 114.401C239.753 112.451 236.444 109.761 236.444 109.761C239.8 114.991 242.645 119.421 249.78 118.691C255.179 118.141 257.882 112.831 257.882 112.831" fill="#F0C2C2"/>
<path d="M204.596 53.7212C202.333 55.1012 200.321 56.8411 198.663 58.8511C196.643 60.7611 194.914 62.7508 193.405 64.8008C169.147 73.2608 170.813 88.3112 169.021 100.681C164.228 66.9312 180.274 45.4111 203.928 45.4111H203.967C203.637 47.3511 203.582 49.3808 203.92 51.5708C204.038 52.3108 204.274 53.0212 204.596 53.7212Z" fill="#EF4180"/>
<path d="M193.397 64.8008C181.46 81.0308 183.605 101.061 168.667 119.331C165.044 121.771 156.777 121.581 155.465 118.101C165.586 114.661 167.936 108.171 169.013 100.681C170.796 88.3112 169.138 73.251 193.397 64.791V64.8008Z" fill="#BC56BA"/>
<path d="M149.768 162.911C149.571 163.181 149.367 163.461 149.163 163.731L145.32 168.631C145.234 168.741 145.147 168.831 145.061 168.931V168.951C143.646 170.471 141.548 171.061 139.623 170.601C139.442 170.551 139.261 170.501 139.088 170.441C138.397 170.201 137.729 169.801 137.147 169.271C135.34 167.601 134.986 164.941 136.024 162.791C136.197 162.421 136.417 162.081 136.668 161.751L140.393 157.011C140.393 157.011 140.44 156.941 140.472 156.911C143.898 152.431 142.358 145.951 137.399 143.221L133.045 140.811C129.061 138.611 126.806 134.341 128 129.981C127.953 130.161 127.914 129.781 128 129.981C128.55 127.751 139.301 126.891 142.043 130.661L147.685 136.691C154.444 143.911 155.481 154.881 149.752 162.921L149.768 162.911Z" fill="url(#paint2_linear_237_1790)"/>
<path d="M128 129.981C126.806 134.341 129.061 138.611 133.045 140.811L137.399 143.221C142.358 145.951 143.898 152.431 140.472 156.911C140.44 156.941 140.393 157.011 140.393 157.011L136.668 161.751C136.417 162.081 136.197 162.421 136.024 162.791C134.986 164.941 135.34 167.601 137.147 169.271C137.729 169.801 138.397 170.201 139.088 170.441C139.261 170.501 139.442 170.551 139.623 170.601C141.548 171.061 143.646 170.471 145.061 168.951V168.931C145.147 168.831 145.234 168.741 145.32 168.631L149.163 163.731C149.367 163.461 149.571 163.181 149.768 162.911L149.752 162.921C155.481 154.881 154.444 143.911 147.685 136.691L142.043 130.661C139.301 126.891 128.55 127.751 128 129.981ZM128 129.981C127.914 129.781 127.953 130.161 128 129.981Z" stroke="#332933" stroke-width="1.11956" stroke-linejoin="round"/>
<path d="M144.784 171.801C144.297 172.571 143.496 173.071 142.498 173.291C142.498 173.291 142.492 173.291 142.482 173.291C141.728 173.271 140.973 173.301 140.258 173.371C139.001 173.221 137.641 172.731 136.345 171.951C134.962 171.121 133.877 170.041 133.162 168.921L133.123 168.861L132.581 167.801C132.093 166.571 132.085 165.371 132.683 164.421C133.319 163.391 134.545 162.851 136.022 162.791C134.985 164.941 135.339 167.601 137.146 169.271C137.728 169.801 138.396 170.191 139.087 170.441C139.26 170.501 139.441 170.561 139.622 170.601C141.547 171.061 143.645 170.471 145.052 168.951V168.931C145.366 169.971 145.295 170.981 144.784 171.791V171.801Z" fill="url(#paint3_linear_237_1790)" stroke="#332933" stroke-width="1.11956" stroke-linejoin="round"/>
<path d="M133.125 168.861C132.913 168.511 132.724 168.161 132.583 167.801L133.125 168.861Z" fill="#332933"/>
<path d="M144.825 185.101C141.973 185.131 135.223 182.441 131.71 177.931C125.761 170.311 132.59 167.801 132.59 167.801C132.731 168.161 132.912 168.511 133.132 168.861L133.172 168.921C133.887 170.041 134.971 171.111 136.354 171.951C137.651 172.741 139.01 173.221 140.268 173.371C140.975 173.311 141.729 173.271 142.492 173.301C142.492 173.301 142.497 173.301 142.507 173.301C145.839 173.401 149.273 174.591 149.815 178.931C150.02 180.611 150.24 185.061 144.833 185.111L144.825 185.101Z" fill="url(#paint4_linear_237_1790)" stroke="#332933" stroke-width="1.11956" stroke-linejoin="round"/>
<path d="M133.125 168.861C132.913 168.511 132.724 168.161 132.583 167.801L133.125 168.861Z" fill="#332933"/>
<path d="M216.616 185.171C216.727 184.871 217.63 179.211 216.75 175.551C217.3 173.911 217.662 172.571 217.67 171.771C217.74 163.441 217.434 158.331 215.029 150.351C213.717 146.001 211.791 141.861 209.913 137.711C206.817 130.861 203.831 123.971 200.978 117.011C199.643 113.791 198.338 110.551 197.371 107.201C195.996 102.511 193.136 91.751 196.24 86.041C197.521 95.291 202.652 107.121 213.049 108.601C215.87 109.181 217.96 109.501 219.689 109.761C220.066 120.401 222.895 133.571 226.785 144.321C231.5 157.371 229.378 171.801 216.192 186.601C216.318 186.121 216.459 185.661 216.616 185.171Z" fill="#FAD68C"/>
<path d="M197.43 188.981C196.589 191.021 195.206 193.701 194.027 196.491C172.534 201.171 145.745 197.491 123.326 195.451C123.514 195.251 123.703 195.041 123.899 194.831C124.135 194.581 124.363 194.331 124.591 194.061C125.746 192.731 126.838 191.321 127.844 189.851C131.239 190.631 136.033 191.511 142.492 192.261C148.229 192.941 156.299 191.541 164.165 189.531C170.758 195.771 181.1 192.981 193.964 186.481C194.019 186.451 194.09 186.421 194.145 186.391C198.766 184.091 198.813 185.711 197.438 189.001L197.43 188.981Z" fill="#FAD68C"/>
<path d="M258.025 100.791C261.514 98.6709 258.661 108.871 256.327 108.951C254.583 108.051 254.638 105.491 253.428 104.101C249.066 99.2209 256.178 102.931 258.017 100.801L258.025 100.791Z" fill="#FAD68C"/>
<path d="M248.918 39.8916C249.232 38.4816 250.12 36.7416 251.629 36.3516C252.925 38.3116 249.9 40.6516 250.104 42.8716C250.065 43.3116 249.923 43.5715 249.507 43.2515C248.595 42.5315 248.745 40.8716 248.918 39.8916Z" fill="#F2789A"/>
<path d="M240.935 44.4407C241.941 42.0307 246.687 40.2806 243.74 44.3006C242.538 45.4406 243.041 46.7807 242.271 48.1507C240.793 50.7907 239.842 45.7707 240.935 44.4407Z" fill="#FAD68C"/>
<path d="M256.682 31.6304C256.965 30.3804 257.751 28.8305 259.094 28.4805C260.25 30.2405 257.554 32.3105 257.735 34.2905C257.696 34.6805 257.578 34.9204 257.208 34.6304C256.399 33.9904 256.525 32.5104 256.682 31.6304Z" fill="#FAD68C"/>
<path d="M264.092 24.8013C264.5 23.8313 265.365 22.7013 266.489 22.6113C267.157 24.1813 264.689 25.4615 264.548 27.0815C264.461 27.3915 264.328 27.5613 264.076 27.2812C263.518 26.6513 263.84 25.4813 264.092 24.8013Z" fill="#F2789A"/>
<path d="M187.592 57.6112C184.944 59.3212 182.563 61.4216 180.433 63.7216C179.852 64.3416 179.294 64.9915 178.751 65.6415C175.946 69.0215 173.502 72.7413 171.561 76.6713C171.427 76.9413 171.232 77.2414 171.146 77.5414C173.079 71.1114 175.592 64.4913 179.883 59.2113C181.337 57.4113 183.011 55.7915 184.857 54.3915C186.704 52.9815 188.598 51.8515 190.665 50.9315C191.348 50.6315 192.063 50.3414 192.81 50.3314C194.028 50.2914 194.963 51.1513 195.427 52.2113C195.592 52.5913 195.702 53.0213 195.56 53.4213C195.411 53.8313 195.01 54.1111 194.602 54.2811" fill="#F2789A"/>
<path d="M39.6182 154.831C45.2362 146.551 57.0242 143.671 66.2732 147.041C67.3732 147.511 68.4892 148.001 69.5342 148.571C68.8352 148.551 68.1592 148.501 67.4912 148.441C57.7232 147.321 47.9242 149.501 39.6182 154.831Z" fill="#FAD68C"/>
<path d="M159.756 182.65C165.492 196.97 177.704 194.681 193.955 186.471C194.01 186.441 194.081 186.41 194.136 186.38C198.757 184.08 198.804 185.701 197.429 188.991C196.588 191.031 195.205 193.71 194.026 196.5C180.494 199.44 164.864 199.071 149.54 197.891C146.334 197.631 143.143 197.351 139.992 197.061C134.279 196.521 128.684 195.94 123.34 195.46" stroke="#332933" stroke-width="1.11956" stroke-linecap="round" stroke-linejoin="round"/>
<path d="M219.691 109.761C220.076 120.401 222.897 133.571 226.787 144.321C229.742 152.481 229.757 161.061 227.353 168.841C225.325 175.401 221.561 181.391 216.351 186.061C216.43 185.761 216.516 185.481 216.618 185.171C216.752 184.801 218.08 176.311 215.817 173.441C215.023 172.431 213.994 171.751 212.744 171.251C208.705 169.641 202.497 170.101 195.754 168.741C195.283 168.651 194.819 168.571 194.34 168.501" stroke="#332933" stroke-width="1.11956" stroke-linecap="round" stroke-linejoin="round"/>
<path d="M148.046 137.082C154.505 134.392 160.918 129.602 167.417 120.812C185.734 99.8715 180.202 76.3716 198.653 58.8516" stroke="#332933" stroke-width="1.11956" stroke-linecap="round" stroke-linejoin="round"/>
<path d="M132.529 140.501C124.239 141.231 115.657 141.071 106.495 143.711" stroke="#332933" stroke-width="1.11956" stroke-linecap="round" stroke-linejoin="round"/>
<path d="M228.384 53.4409C225.421 51.6309 222.309 50.6308 219.213 50.3008" stroke="#332933" stroke-width="1.11956" stroke-linecap="round" stroke-linejoin="round"/>
<path d="M204.597 53.7207C202.333 55.1007 200.314 56.8406 198.664 58.8506" stroke="#332933" stroke-width="1.11956" stroke-linecap="round" stroke-linejoin="round"/>
<path d="M173.736 173.881C179.567 169.301 187.04 167.441 194.348 168.501C194.827 168.571 195.291 168.661 195.763 168.751C202.505 170.101 208.713 169.651 212.752 171.261C213.994 171.751 215.031 172.441 215.825 173.441C218.088 176.311 216.752 184.811 216.626 185.181C216.524 185.481 216.438 185.761 216.359 186.071C215.841 187.811 215.558 189.481 215.424 191.161C214.772 199.001 217.169 206.951 213.404 222.511C212.194 227.501 209.994 234.781 205.688 243.251C199.338 240.081 188.093 227.681 185.437 219.861C185.869 216.941 190.529 210.581 193.46 209.191C190.623 206.341 192.038 201.241 194.049 196.501C195.228 193.711 196.611 191.031 197.452 188.991C198.819 185.711 198.78 184.091 194.159 186.381C194.104 186.411 194.034 186.441 193.979 186.471C177.736 194.681 165.516 196.961 159.779 182.641" stroke="#332933" stroke-width="1.11956" stroke-linecap="round" stroke-linejoin="round"/>
<path d="M149.534 197.881C145.283 203.331 139.79 207.781 133.542 210.961C113.786 221.021 95.9093 224.611 87.1783 248.891C72.7973 276.631 50.3073 261.561 63.5803 242.421L69.4103 241.781C73.4503 229.171 76.7113 240.161 84.6633 228.211C89.0883 223.941 89.8663 217.161 91.2173 212.641C95.3593 211.281 99.6343 209.881 104.019 208.231C105.394 207.711 106.753 207.131 108.073 206.491C108.396 206.341 108.718 206.191 109.032 206.021C109.252 205.921 109.472 205.801 109.692 205.681C109.794 205.641 109.889 205.591 109.983 205.531C110.313 205.361 110.643 205.181 110.965 205.001C111.162 204.891 111.35 204.781 111.555 204.671C111.783 204.541 112.01 204.411 112.23 204.281C112.513 204.121 112.796 203.941 113.071 203.771C113.166 203.721 113.26 203.651 113.354 203.601C113.629 203.431 113.912 203.251 114.179 203.071C114.392 202.941 114.596 202.811 114.792 202.661C115.012 202.521 115.232 202.371 115.445 202.211C116.23 201.681 117 201.111 117.747 200.521C118.014 200.321 118.281 200.101 118.549 199.871C120.23 198.511 121.825 197.031 123.311 195.451C128.654 195.931 134.25 196.511 139.963 197.051C143.122 197.351 146.304 197.631 149.51 197.881H149.534Z" stroke="#332933" stroke-width="1.11956" stroke-linecap="round" stroke-linejoin="round"/>
<path d="M131.679 183.091C130.893 184.821 129.958 186.541 128.889 188.251C127.601 190.301 126.155 192.241 124.583 194.061C124.355 194.321 124.127 194.571 123.891 194.831C123.703 195.041 123.514 195.241 123.318 195.441C121.833 197.021 120.245 198.511 118.556 199.871C118.288 200.091 118.029 200.311 117.754 200.511C117.008 201.101 116.237 201.671 115.452 202.211C115.239 202.361 115.019 202.511 114.799 202.651C114.603 202.801 114.399 202.931 114.186 203.061C113.919 203.241 113.636 203.421 113.361 203.591C113.267 203.651 113.173 203.721 113.078 203.761C112.803 203.931 112.52 204.111 112.238 204.281C112.017 204.411 111.79 204.541 111.562 204.671C111.365 204.771 111.177 204.881 110.972 204.991C110.65 205.171 110.32 205.351 109.99 205.521C109.896 205.581 109.801 205.631 109.699 205.681C109.479 205.791 109.259 205.911 109.039 206.011C108.725 206.181 108.403 206.331 108.08 206.491C106.752 207.121 105.401 207.701 104.026 208.221C99.6413 209.871 95.3583 211.261 91.2243 212.631C74.3453 218.191 59.8152 223.251 50.0002 243.231C31.3132 271.161 9.11323 252.431 25.5842 233.561H31.8862C37.7012 220.581 39.8702 232.681 49.7952 220.881C57.4652 214.961 57.4182 202.391 62.0392 200.701C66.1252 199.211 69.7712 196.741 72.0502 193.061C81.3862 177.951 79.2173 160.161 96.0493 148.861C96.3563 148.661 96.6622 148.461 96.9852 148.261C99.6332 146.581 102.737 145.071 106.383 143.741C106.383 143.741 106.407 143.741 106.415 143.721C106.438 143.721 106.454 143.711 106.47 143.701H106.493" stroke="#332933" stroke-width="1.11956" stroke-linecap="round" stroke-linejoin="round"/>
<path d="M86.1624 158.931C85.5184 159.951 84.9214 161.001 84.3794 162.061C58.5094 163.801 62.7054 179.291 47.9164 194.671C26.5184 212.651 -12.7576 194.481 4.82938 162.051C-1.89762 175.281 5.9684 193.461 25.2924 190.601C44.6634 187.751 41.6534 161.261 59.6094 155.981C70.0774 152.281 81.2124 156.361 86.1704 158.931H86.1624Z" stroke="#332933" stroke-width="1.11956" stroke-linecap="round" stroke-linejoin="round"/>
<path d="M25.1204 167.86C23.0854 170.31 21.2305 172.941 19.5965 175.701C10.2285 186.941 0.201415 171.45 5.12141 161.5C5.01841 161.67 4.92446 161.861 4.83046 162.041C-1.89654 175.271 5.96947 193.46 25.2935 190.59C44.6645 187.75 41.6544 161.251 59.6104 155.971C70.0774 152.281 81.2135 156.35 86.1715 158.92L86.6355 158.23C87.0755 157.57 87.5464 156.92 88.0424 156.28" stroke="#332933" stroke-width="1.11956" stroke-linecap="round" stroke-linejoin="round"/>
<path d="M14.0713 158.021C14.1733 158.601 14.2913 159.152 14.4173 159.682C14.2593 159.192 14.1493 158.631 14.0713 158.021Z" stroke="#332933" stroke-width="1.11956" stroke-linecap="round" stroke-linejoin="round"/>
<path d="M88.8915 155.232C88.6005 155.582 88.3015 155.932 88.0345 156.292C87.5395 156.932 87.0685 157.582 86.6285 158.242C62.5425 140.552 38.8335 164.512 25.1215 167.872C19.9815 169.132 16.2415 167.492 14.4175 159.702C16.7675 167.542 27.6435 160.582 35.2665 152.522C42.5505 144.822 68.1925 135.512 88.8915 155.232Z" stroke="#332933" stroke-width="1.11956" stroke-linecap="round" stroke-linejoin="round"/>
<path d="M268.876 21.2115C268.931 19.9315 268.955 19.7117 270.699 18.8317C271.194 18.5517 274.801 17.2917 274.841 17.3517C274.856 17.3717 274.676 17.7217 274.456 18.1417C272.994 21.1117 270.291 27.4415 267.674 29.7115" stroke="#332933" stroke-width="1.11956" stroke-linecap="round" stroke-linejoin="round"/>
<path d="M262.52 25.1111C263.078 22.9711 264.374 21.6812 267.132 20.9812C268.618 20.5512 269.058 20.1314 268.822 21.6814C267.997 28.1914 268.028 34.6011 261.742 37.8611" stroke="#332933" stroke-width="1.11956" stroke-linecap="round" stroke-linejoin="round"/>
<path d="M255.094 31.4112C255.549 29.6212 256.625 28.1412 258.534 26.9512C259.391 26.4812 262.432 25.0409 262.519 25.1109C262.534 25.1409 262.48 25.5708 262.378 26.0908C261.915 29.7408 262.739 33.8711 261.733 37.8511C260.727 41.8311 257.898 45.6511 254.542 47.8311" stroke="#332933" stroke-width="1.11956" stroke-linecap="round" stroke-linejoin="round"/>
<path d="M247.487 38.5312C248.555 35.7613 250.41 33.7613 255.203 31.0312C255.062 31.1112 254.842 32.6013 254.92 34.8013C254.944 35.4313 254.976 36.0614 254.999 36.6914C255.078 38.6814 255.156 40.6616 255.156 42.6416C255.093 44.9716 254.826 47.3112 254.056 49.5312C253.294 51.7313 252.036 53.7214 250.418 55.4014C249.883 55.9614 249.318 56.4914 248.72 56.9814C248.406 57.2514 248.076 57.5012 247.746 57.7612C247.565 57.8912 246.795 58.3715 246.614 58.5015" stroke="#332933" stroke-width="1.11956" stroke-linecap="round" stroke-linejoin="round"/>
<path d="M237.665 47.0415C239.307 42.4815 243.213 39.5714 247.873 37.6914C247.873 37.6914 246.364 40.7613 246.191 42.5913C245.335 51.7813 250.034 59.8913 242.168 65.3613" stroke="#332933" stroke-width="1.11956" stroke-linecap="round" stroke-linejoin="round"/>
<path fill-rule="evenodd" clip-rule="evenodd" d="M237.53 47.6611C236.312 53.2311 237.515 59.0712 240.87 63.7212C241.255 64.2612 241.617 64.7512 241.907 65.1812C242.905 66.6712 240.894 69.8411 238.387 71.5811C237.2 72.2711 229.971 69.271 227.259 64.981C222.568 57.541 229.688 50.1609 237.695 46.9209C237.695 46.9209 237.632 47.2011 237.53 47.6611Z" stroke="#332933" stroke-width="1.11956" stroke-linecap="round" stroke-linejoin="round"/>
<path d="M210.357 59.3203C207.598 58.1303 204.471 55.0503 203.921 51.5703C202.64 43.3803 206.946 37.3103 210.294 30.8203C211.323 28.8203 214.192 28.7905 215.268 30.7705C219.299 38.1505 221.798 47.8704 217.445 54.2104" stroke="#332933" stroke-width="1.11956" stroke-linecap="round" stroke-linejoin="round"/>
<path d="M214.892 39.8507C211.717 27.8607 205.807 54.4608 210.9 56.4308" stroke="#332933" stroke-width="1.11956" stroke-linecap="round" stroke-linejoin="round"/>
<path d="M233.492 206.131C233.492 206.131 241.13 218.971 254.938 215.951" stroke="#332933" stroke-width="1.11956" stroke-linecap="round" stroke-linejoin="round"/>
<path d="M31.8854 233.561C31.8854 233.561 27.1624 254.921 41.5984 252.721" stroke="#332933" stroke-width="1.11956" stroke-linecap="round" stroke-linejoin="round"/>
<path d="M69.7064 241.111C69.7064 241.111 67.0894 261.772 80.7394 258.312" stroke="#332933" stroke-width="1.11956" stroke-linecap="round" stroke-linejoin="round"/>
<path d="M242.465 65.791C251.636 76.171 241.436 76.4009 249.192 88.1509C255.966 97.5609 261.679 92.941 261.482 105.271C261.246 113.571 255.746 123.101 243.031 121.621C239.188 121.171 235.283 117.221 230.874 114.221C223.896 109.471 222.709 110.581 213.044 108.601C200.007 106.751 195.26 88.621 195.975 79.731" stroke="#332933" stroke-width="1.11956" stroke-linecap="round" stroke-linejoin="round"/>
<path d="M260.365 111.321C259.626 111.991 251.014 117.201 244.35 114.401C239.753 112.451 236.444 109.761 236.444 109.761C239.8 114.991 242.645 119.421 249.78 118.691C255.179 118.141 257.882 112.831 257.882 112.831" fill="#F2789A"/>
<path d="M260.365 111.321C259.626 111.991 251.014 117.201 244.35 114.401C239.753 112.451 236.444 109.761 236.444 109.761C239.8 114.991 242.645 119.421 249.78 118.691C255.179 118.141 257.882 112.831 257.882 112.831" stroke="#332933" stroke-width="1.11956" stroke-linecap="round" stroke-linejoin="round"/>
<path d="M248.862 56.8516C252.437 61.6916 257.357 65.9814 265.301 67.6914C265.356 67.6914 251.51 70.0214 242.575 66.1914" stroke="#332933" stroke-width="1.11956" stroke-linecap="round" stroke-linejoin="round"/>
<path d="M240.39 42.5715C236.548 34.2915 222.363 35.1615 219.747 46.5915" stroke="#332933" stroke-width="1.11956" stroke-linecap="round" stroke-linejoin="round"/>
<path d="M232.518 44.7213C230.121 41.3613 224.651 41.841 221.893 44.921C220.408 46.581 219.819 48.4711 220.149 51.2711C221.17 59.8111 240.91 57.8409 245.397 51.1309C241.775 50.5809 236.84 50.8013 232.518 44.7213Z" fill="#EF4180"/>
<path d="M232.518 44.7213C230.121 41.3613 224.651 41.841 221.893 44.921C220.408 46.581 219.819 48.4711 220.149 51.2711C221.17 59.8111 240.91 57.8409 245.397 51.1309C241.775 50.5809 236.84 50.8013 232.518 44.7213Z" stroke="#332933" stroke-width="1.11956" stroke-linecap="round" stroke-linejoin="round"/>
<path d="M203.929 45.4111C180.259 45.4111 164.221 66.951 169.022 100.731" stroke="#332933" stroke-width="1.11956" stroke-linecap="round" stroke-linejoin="round"/>
<path d="M193.406 64.8008C154.453 78.3708 182.334 108.981 155.474 118.111C156.794 121.581 165.053 121.771 168.684 119.331" stroke="#332933" stroke-width="1.11956" stroke-linecap="round" stroke-linejoin="round"/>
<path d="M139.624 170.601C138.736 170.381 137.88 169.94 137.149 169.27C135.027 167.31 134.901 164.02 136.677 161.75L140.402 157C140.402 157 140.449 156.94 140.481 156.9C143.915 152.43 142.367 145.941 137.408 143.201L133.055 140.8C129.786 138.99 127.758 135.49 127.797 131.88C127.813 130.46 128.819 129.241 130.218 128.911C133.125 128.231 138.461 127.57 142.068 130.65L147.71 136.67C154.461 143.88 155.506 154.881 149.777 162.911C149.581 163.181 149.376 163.46 149.172 163.73L145.329 168.63C143.946 170.39 141.691 171.091 139.632 170.601H139.624Z" stroke="#332933" stroke-width="1.11956" stroke-linecap="round" stroke-linejoin="round"/>
<path d="M145.062 168.932C145.361 169.972 145.298 170.982 144.787 171.792C144.3 172.562 143.498 173.062 142.5 173.292C142.5 173.292 142.5 173.292 142.484 173.292" stroke="#332933" stroke-width="1.11956" stroke-linecap="round" stroke-linejoin="round"/>
<path d="M140.266 173.371C139.009 173.221 137.649 172.741 136.353 171.951C134.506 170.831 133.194 169.311 132.597 167.811C132.109 166.581 132.102 165.381 132.699 164.431C133.335 163.391 134.561 162.861 136.039 162.791" stroke="#332933" stroke-width="1.11956" stroke-linecap="round" stroke-linejoin="round"/>
<path d="M135.86 174.211C135.86 174.211 148.716 170.201 149.8 178.921C150.012 180.601 150.225 185.061 144.818 185.101C141.966 185.131 135.215 182.451 131.695 177.931C125.754 170.301 132.575 167.801 132.575 167.801" stroke="#332933" stroke-width="1.11956" stroke-linecap="round" stroke-linejoin="round"/>
<path d="M150.201 127.421C150.381 130.121 151.772 132.441 153.863 134.041" stroke="#332933" stroke-width="1.11956" stroke-linecap="round" stroke-linejoin="round"/>
<path d="M164.628 124.351L163.984 123.931C163.575 123.591 163.088 123.331 162.538 123.141" stroke="#332933" stroke-width="1.11956" stroke-linecap="round" stroke-linejoin="round"/>
<path d="M64.2554 93.1611C64.0434 94.0811 63.6974 94.881 63.2334 95.561" stroke="#332933" stroke-width="1.11956" stroke-linecap="round" stroke-linejoin="round"/>
<path d="M64.8455 87.3008C66.2675 88.1408 67.2505 89.5111 67.7135 91.1011C68.3035 93.0811 68.0985 95.411 66.9905 97.561C65.6705 100.081 63.3995 101.741 61.0345 102.181C59.6515 102.431 58.2365 102.271 56.9635 101.621C55.7535 101.001 54.8345 100.031 54.2295 98.8511" stroke="#332933" stroke-width="1.11956" stroke-linecap="round" stroke-linejoin="round"/>
<path d="M63.6865 94.7715L63.6255 94.8315" stroke="#332933" stroke-width="1.11956" stroke-linecap="round" stroke-linejoin="round"/>
<path d="M67.7222 91.1016C67.7222 91.1016 73.0732 96.5215 79.1482 97.2915C82.8652 97.7715 85.4502 101.432 84.3732 104.992C84.1462 105.742 83.7762 106.451 83.1792 107.071C79.8782 110.521 75.7612 110.091 73.8902 109.531C72.0202 108.981 64.0362 105.962 61.0502 102.202L61.0342 102.182" stroke="#332933" stroke-width="1.11956" stroke-linecap="round" stroke-linejoin="round"/>
<path d="M55.3816 78.1217C55.3346 77.4817 55.3426 76.8418 55.4846 76.2218C55.6966 75.2918 56.2696 74.3914 57.1576 74.0314C57.4096 73.9414 57.6686 73.8817 57.9276 73.8917C58.6356 73.9417 59.2166 74.4914 59.5386 75.1114C59.8686 75.7414 60.0026 76.4417 60.2386 77.1017C61.1026 79.5917 63.2876 81.4417 64.1836 83.9117C64.3876 84.4717 64.5286 85.0615 64.6386 85.6515C64.7416 86.1715 64.8046 86.7314 64.8516 87.3014C64.9846 89.1914 64.8046 91.2917 64.2616 93.1417C64.2616 93.1417 64.2616 93.1517 64.2616 93.1617C64.0966 93.7417 63.8846 94.3014 63.6336 94.8214C63.5236 95.0814 63.3896 95.3216 63.2556 95.5616V95.5714C62.8556 96.1714 62.3606 96.6917 61.8026 97.1217C59.8766 98.6317 57.1346 99.1314 54.2586 98.8414C49.3156 98.3614 44.2856 96.0315 41.9756 91.9615" stroke="#332933" stroke-width="1.11956" stroke-linecap="round" stroke-linejoin="round"/>
<path d="M44.9842 79.7609C43.6562 77.6809 42.8712 75.2011 42.6352 72.9811C42.2032 69.0511 47.4052 67.551 49.0712 71.111C50.7682 73.791 53.0002 76.061 55.3732 78.131C55.7822 78.481 57.7312 79.7709 58.5242 81.0709" stroke="#332933" stroke-width="1.11956" stroke-linecap="round" stroke-linejoin="round"/>
<path d="M51.0652 87.2508C51.2152 87.2708 51.3482 87.2508 51.4902 87.2508C52.2992 87.2008 53.0063 86.7008 53.4393 86.0208C53.8083 85.4408 54.0282 84.8806 54.1302 84.3406C54.4682 82.5506 53.4542 81.0006 51.9142 80.0306C49.9182 78.7806 47.0343 78.4708 44.9913 79.7708C44.1813 80.2708 43.5062 81.0406 43.0662 82.0906C42.8532 82.5906 42.7432 83.141 42.6882 83.681C42.5152 85.351 42.3432 86.7109 43.6782 86.8309" stroke="#332933" stroke-width="1.11956" stroke-linecap="round" stroke-linejoin="round"/>
<path d="M45.9835 93.2316C46.5565 93.1216 47.1385 93.0918 47.7195 93.1618C47.8615 93.1818 47.9945 93.2019 48.1365 93.2219C49.0555 93.3319 50.0535 93.4316 50.8635 93.0016C51.8845 92.4516 52.3166 91.2014 52.3646 90.0514C52.3956 89.3814 52.3166 88.6918 51.9556 88.1218C51.6486 87.6318 51.1536 87.2816 50.6506 87.0016C48.4506 85.8016 45.6296 85.7718 43.4136 86.9518C42.8316 87.2518 42.2815 87.6519 41.9675 88.2219C41.6765 88.7619 41.6295 89.4014 41.6215 90.0114C41.6065 90.6814 41.6295 91.3819 41.9515 91.9719" stroke="#332933" stroke-width="1.11956" stroke-linecap="round" stroke-linejoin="round"/>
<path d="M53.4204 92.9612C54.5834 90.4912 58.5914 88.441 61.2394 89.761" stroke="#332933" stroke-width="1.11956" stroke-linecap="round" stroke-linejoin="round"/>
<path d="M58.8253 89.1816C58.8253 88.5116 58.5503 87.3716 57.9683 86.8516" stroke="#332933" stroke-width="1.11956" stroke-linecap="round" stroke-linejoin="round"/>
<path d="M224.744 46.261C221.098 51.081 232.162 53.5813 236.186 52.5813C230.653 53.3313 228.296 41.581 224.744 46.261Z" fill="#F2789A"/>
<path d="M253.128 233.911C246.59 232.601 233.302 224.171 228.932 217.771C228.579 215.021 231.196 208.111 233.49 206.141C225.105 201.341 237.749 194.781 228.233 185.481C224.43 188.061 219.974 190.09 215.408 191.15C215.55 189.47 215.825 187.791 216.343 186.061C221.553 181.391 225.318 175.4 227.345 168.84C234.858 167.98 240.94 165.53 244.712 168.3C247.486 170.34 248.413 178.341 248.397 178.721C247.887 188.901 254.236 194.511 254.888 213.251C255.053 218.061 254.888 225.17 253.128 233.9V233.911Z" stroke="#332933" stroke-width="1.11956" stroke-linecap="round" stroke-linejoin="round"/>
<path d="M193.232 208.971C193.232 208.971 199.385 226.031 213.2 222.871" stroke="#332933" stroke-width="1.11956" stroke-linecap="round" stroke-linejoin="round"/>
</g>
<defs>
<linearGradient id="paint0_linear_237_1790" x1="75.5313" y1="19.0205" x2="123.136" y2="126.37" gradientUnits="userSpaceOnUse">
<stop stop-color="#2B93C7"/>
<stop offset="1" stop-color="#9E0EB0"/>
</linearGradient>
<linearGradient id="paint1_linear_237_1790" x1="60.4743" y1="100.511" x2="84.6154" y2="100.511" gradientUnits="userSpaceOnUse">
<stop stop-color="#2B93C7"/>
<stop offset="1" stop-color="#9E0EB0"/>
</linearGradient>
<linearGradient id="paint2_linear_237_1790" x1="154.719" y1="175.851" x2="129.448" y2="126.791" gradientUnits="userSpaceOnUse">
<stop stop-color="#2B93C7"/>
<stop offset="1" stop-color="#9E0EB0"/>
</linearGradient>
<linearGradient id="paint3_linear_237_1790" x1="131.997" y1="166.611" x2="145.402" y2="169.911" gradientUnits="userSpaceOnUse">
<stop stop-color="#2B93C7"/>
<stop offset="1" stop-color="#9E0EB0"/>
</linearGradient>
<linearGradient id="paint4_linear_237_1790" x1="128.695" y1="174.131" x2="150.283" y2="179.451" gradientUnits="userSpaceOnUse">
<stop stop-color="#2B93C7"/>
<stop offset="1" stop-color="#9E0EB0"/>
</linearGradient>
</defs>
</svg>
