<svg width="30" height="30" viewBox="0 0 30 30" fill="none" xmlns="http://www.w3.org/2000/svg">
<path d="M30 15C30 6.71573 23.2843 0 15 0C6.71573 0 0 6.71573 0 15C0 23.2843 6.71573 30 15 30C23.2843 30 30 23.2843 30 15Z" fill="#7289DA"/>
<path d="M13.6425 14.73C13.215 14.73 12.8775 15.105 12.8775 15.5625C12.8775 16.02 13.2225 16.395 13.6425 16.395C14.07 16.395 14.4075 16.02 14.4075 15.5625C14.415 15.105 14.07 14.73 13.6425 14.73ZM16.38 14.73C15.9525 14.73 15.615 15.105 15.615 15.5625C15.615 16.02 15.96 16.395 16.38 16.395C16.8075 16.395 17.145 16.02 17.145 15.5625C17.145 15.105 16.8075 14.73 16.38 14.73Z" fill="white"/>
<path d="M20.025 8.4375H9.975C9.1275 8.4375 8.4375 9.1275 8.4375 9.9825V20.1225C8.4375 20.9775 9.1275 21.6675 9.975 21.6675H18.48L18.0825 20.28L19.0425 21.1725L19.95 22.0125L21.5625 23.4375V9.9825C21.5625 9.1275 20.8725 8.4375 20.025 8.4375ZM17.13 18.2325C17.13 18.2325 16.86 17.91 16.635 17.625C17.6175 17.3475 17.9925 16.7325 17.9925 16.7325C17.685 16.935 17.3925 17.0775 17.13 17.175C16.755 17.3325 16.395 17.4375 16.0425 17.4975C15.3225 17.6325 14.6625 17.595 14.1 17.49C13.6725 17.4075 13.305 17.2875 12.9975 17.1675C12.825 17.1 12.6375 17.0175 12.45 16.9125C12.4275 16.8975 12.405 16.89 12.3825 16.875C12.3675 16.8675 12.36 16.86 12.3525 16.8525C12.2175 16.7775 12.1425 16.725 12.1425 16.725C12.1425 16.725 12.5025 17.325 13.455 17.61C13.23 17.895 12.9525 18.2325 12.9525 18.2325C11.295 18.18 10.665 17.0925 10.665 17.0925C10.665 14.6775 11.745 12.72 11.745 12.72C12.825 11.91 13.8525 11.9325 13.8525 11.9325L13.9275 12.0225C12.5775 12.4125 11.955 13.005 11.955 13.005C11.955 13.005 12.12 12.915 12.3975 12.7875C13.2 12.435 13.8375 12.3375 14.1 12.315C14.145 12.3075 14.1825 12.3 14.2275 12.3C14.685 12.24 15.2025 12.225 15.7425 12.285C16.455 12.3675 17.22 12.5775 18 13.005C18 13.005 17.4075 12.4425 16.1325 12.0525L16.2375 11.9325C16.2375 11.9325 17.265 11.91 18.345 12.72C18.345 12.72 19.425 14.6775 19.425 17.0925C19.425 17.0925 18.7875 18.18 17.13 18.2325Z" fill="white"/>
</svg>
